#!OML:ASF F:\VICON\USERDATA\INSTALL\rory3\rory3.ASF
:FULLY-SPECIFIED
:DEGREES
178
root 4.31106 17.5668 0.940786 16.016 3.40301 -4.31747
lowerback -5.90106 0.0602175 4.2231
upperback -8.22894 0.116719 3.11985
thorax -5.26239 -0.0710386 0.887478
lowerneck -7.25469 12.7937 8.51693
upperneck 31.0643 16.5716 1.6218
head 12.0021 8.68774 1.31957
rclavicle -8.19987e-015 -6.36111e-015
rhumerus -1.58266 -12.4551 -1.2756
rradius 130.301
rwrist -53.4948
rhand -3.65022 -44.4884
rfingers 7.12502
rthumb 22.0898 -73.2467
lclavicle -8.19987e-015 -6.36111e-015
lhumerus 29.9982 20.2899 -7.3533
lradius 62.5015
lwrist 59.6702
lhand -29.5619 -21.9141
lfingers 7.12502
lthumb -2.89436 8.04597
rfemur -16.0917 3.4246 -0.0557747
rtibia 25.4736
rfoot 11.7259 -26.8355
rtoes -5.60674
lfemur -22.5159 -1.67446 -24.4363
ltibia 23.4141
lfoot -15.2775 7.12038
ltoes 10.8163
179
root 4.31686 17.5637 0.938232 15.8613 3.48659 -4.3578
lowerback -5.7987 0.0217091 4.27254
upperback -8.096 0.0651257 3.14766
thorax -5.17879 -0.0967563 0.88666
lowerneck -7.46051 12.7646 8.39328
upperneck 31.3146 16.5535 1.60276
head 12.1311 8.65733 1.35706
rclavicle -6.18717e-015 0
rhumerus -1.3569 -12.504 -1.58646
rradius 130.363
rwrist -53.5409
rhand -3.44125 -44.708
rfingers 7.12502
rthumb 22.2904 -73.4424
lclavicle -6.18717e-015 0
lhumerus 29.9637 20.223 -7.263
lradius 63.0011
lwrist 60.0803
lhand -29.9515 -22.5832
lfingers 7.12502
lthumb -3.27066 7.37144
rfemur -16.0074 3.39549 0.0252337
rtibia 25.6058
rfoot 12.5381 -26.6541
rtoes -6.74537
lfemur -22.4208 -1.69598 -24.404
ltibia 23.5134
lfoot -15.3455 7.10333
ltoes 10.7569
180
root 4.32026 17.5601 0.933729 15.8323 3.5467 -4.24287
lowerback -5.79484 -0.0187434 4.09109
upperback -7.98928 0.00987172 3.15335
thorax -5.06553 -0.112209 0.991181
lowerneck -7.59802 12.7153 8.35509
upperneck 31.5214 16.5265 1.48136
head 12.2494 8.62091 1.33815
rclavicle 6.48535e-015 -1.90833e-014
rhumerus -1.16703 -12.4824 -1.89671
rradius 130.369
rwrist -53.4109
rhand -3.53383 -44.6935
rfingers 7.12502
rthumb 22.2016 -73.4385
lclavicle 6.48535e-015 -1.90833e-014
lhumerus 29.8948 20.2091 -7.23363
lradius 63.4736
lwrist 60.4842
lhand -29.707 -23.179
lfingers 7.12502
lthumb -3.03453 6.77917
rfemur -16.0819 3.31972 -0.0853827
rtibia 25.813
rfoot 12.8615 -26.5817
rtoes -7.11532
lfemur -22.4526 -1.74385 -24.5353
ltibia 23.5909
lfoot -15.3908 7.06249
ltoes 11.0363
181
root 4.32149 17.5562 0.925507 15.8578 3.52973 -4.14805
lowerback -5.7598 -0.023421 3.88043
upperback -7.90735 0.00647788 3.15994
thorax -4.99557 -0.10107 1.11414
lowerneck -7.9521 12.6435 8.37059
upperneck 31.8413 16.4755 1.26786
head 12.4731 8.56167 1.29975
rclavicle 6.70898e-015 -1.59028e-014
rhumerus -1.08461 -12.5529 -2.16095
rradius 130.439
rwrist -53.4882
rhand -3.61356 -44.517
rfingers 7.12502
rthumb 22.125 -73.2711
lclavicle 6.70898e-015 -1.59028e-014
lhumerus 29.8514 20.2477 -7.18735
lradius 63.9021
lwrist 60.9364
lhand -28.4892 -22.4863
lfingers 7.12502
lthumb -1.85841 7.48539
rfemur -16.2923 3.29205 -0.201982
rtibia 26.0617
rfoot 13.4317 -26.2726
rtoes -8.41055
lfemur -22.5343 -1.70363 -24.6564
ltibia 23.6437
lfoot -15.4215 7.0029
ltoes 11.3289
182
root 4.32527 17.5478 0.918309 15.7779 3.47379 -4.14028
lowerback -5.56655 0.00752618 3.86775
upperback -7.86615 0.0572479 3.13495
thorax -5.05958 -0.0762643 1.09595
lowerneck -8.29505 12.5518 8.26754
upperneck 32.1587 16.3791 1.18964
head 12.6662 8.48644 1.31614
rclavicle 1.963e-015 -1.43125e-014
rhumerus -1.06055 -12.5522 -2.41303
rradius 130.533
rwrist -53.7697
rhand -3.39962 -44.5276
rfingers 7.12502
rthumb 22.3304 -73.2572
lclavicle 1.963e-015 -1.43125e-014
lhumerus 30.0048 20.2565 -6.94956
lradius 64.2351
lwrist 61.1042
lhand -27.4752 -21.6017
lfingers 7.12502
lthumb -0.879062 8.37619
rfemur -16.4709 3.33182 -0.244611
rtibia 26.3686
rfoot 13.2835 -26.3733
rtoes -7.93756
lfemur -22.529 -1.65279 -24.6956
ltibia 23.76
lfoot -15.4951 6.99845
ltoes 11.4891
183
root 4.33448 17.5455 0.907743 15.7191 3.44238 -4.15963
lowerback -5.38874 0.0193665 3.9613
upperback -7.84884 0.0804681 3.1048
thorax -5.14164 -0.0715491 1.01312
lowerneck -8.50382 12.5227 8.06048
upperneck 32.3998 16.3436 1.29401
head 12.7735 8.45331 1.40556
rclavicle 1.10077e-014 -1.66979e-014
rhumerus -0.932596 -12.4589 -2.7046
rradius 130.561
rwrist -53.7167
rhand -3.15143 -44.7057
rfingers 7.12502
rthumb 22.5686 -73.4065
lclavicle 1.10077e-014 -1.66979e-014
lhumerus 30.2488 20.2916 -6.57797
lradius 64.4688
lwrist 60.8519
lhand -26.9263 -20.9548
lfingers 7.12502
lthumb -0.348901 9.02465
rfemur -16.6847 3.33854 -0.264197
rtibia 26.7072
rfoot 14.0235 -25.9271
rtoes -9.75203
lfemur -22.5887 -1.67234 -24.7093
ltibia 23.9258
lfoot -15.58 7.05463
ltoes 11.5152
184
root 4.33875 17.5421 0.892942 15.7541 3.44042 -4.24795
lowerback -5.35084 0.00636291 4.04574
upperback -7.85184 0.064914 3.12816
thorax -5.16729 -0.0835383 0.990552
lowerneck -8.4287 12.4953 7.92103
upperneck 32.5399 16.3092 1.4063
head 12.788 8.43685 1.46045
rclavicle -1.21756e-015 -3.73715e-014
rhumerus -0.760588 -12.3415 -3.01596
rradius 130.648
rwrist -53.4912
rhand -3.06791 -44.9953
rfingers 7.12502
rthumb 22.6488 -73.6864
lclavicle -1.21756e-015 -3.73715e-014
lhumerus 30.2159 20.2317 -6.49984
lradius 64.8379
lwrist 60.9442
lhand -26.5513 -20.7766
lfingers 7.12502
lthumb 0.0132725 9.20319
rfemur -16.9964 3.35782 -0.178899
rtibia 27.0805
rfoot 13.5516 -26.1733
rtoes -8.86817
lfemur -22.7835 -1.66232 -24.6326
ltibia 24.1016
lfoot -15.5372 7.08863
ltoes 11.2732
185
root 4.33931 17.5392 0.881188 15.7481 3.38914 -4.27352
lowerback -5.26058 0.00062303 3.95166
upperback -7.87737 0.0667877 3.15453
thorax -5.24488 -0.0776985 1.07122
lowerneck -8.42016 12.4358 7.73841
upperneck 32.833 16.1955 1.65531
head 12.8588 8.39493 1.57255
rclavicle 1.81391e-015 -2.22639e-014
rhumerus -0.689703 -12.0396 -3.31238
rradius 130.756
rwrist -53.2386
rhand -3.32121 -44.9408
rfingers 7.12502
rthumb 22.4057 -73.6614
lclavicle 1.81391e-015 -2.22639e-014
lhumerus 30.1676 20.0199 -6.51391
lradius 65.2275
lwrist 61.4744
lhand -26.332 -20.9406
lfingers 7.12502
lthumb 0.225046 9.03904
rfemur -17.2429 3.43694 -0.139155
rtibia 27.4309
rfoot 11.303 -27.3596
rtoes -3.62982
lfemur -22.892 -1.60968 -24.6166
ltibia 24.216
lfoot -15.4746 7.08548
ltoes 11.2265
186
root 4.3447 17.5344 0.874618 15.6738 3.32198 -4.13167
lowerback -5.05277 -0.0222107 3.72113
upperback -7.92055 0.0540404 3.13939
thorax -5.40663 -0.0738533 1.1854
lowerneck -8.50131 12.3956 7.5564
upperneck 33.1456 16.1359 1.81494
head 12.9683 8.36335 1.66996
rclavicle 8.27441e-015 -7.15625e-015
rhumerus -0.611835 -11.609 -3.57697
rradius 130.782
rwrist -52.8933
rhand -3.82548 -44.4456
rfingers 7.12502
rthumb 21.9215 -73.2236
lclavicle 8.27441e-015 -7.15625e-015
lhumerus 30.2531 19.7468 -6.40127
lradius 65.5316
lwrist 61.9546
lhand -26.0937 -20.7659
lfingers 7.12502
lthumb 0.455264 9.21336
rfemur -17.3985 3.38495 -0.279614
rtibia 27.7957
rfoot 13.2074 -26.4405
rtoes -7.23713
lfemur -22.876 -1.59801 -24.8032
ltibia 24.3205
lfoot -15.566 7.07754
ltoes 11.5262
187
root 4.3553 17.5285 0.877459 15.5953 3.30163 -4.05535
lowerback -5.04502 -0.035194 3.66372
upperback -7.91775 0.0366015 3.11263
thorax -5.40745 -0.080304 1.18942
lowerneck -7.15627 12.2931 8.44125
upperneck 32.3858 16.1938 0.826677
head 12.5786 8.40321 1.05478
rclavicle -1.29955e-014 -1.27222e-014
rhumerus -0.489926 -11.3693 -3.84299
rradius 130.802
rwrist -52.7291
rhand -3.79192 -44.2245
rfingers 7.12502
rthumb 21.9538 -72.9988
lclavicle -1.29955e-014 -1.27222e-014
lhumerus 30.2958 19.533 -6.30908
lradius 65.9023
lwrist 62.223
lhand -25.9674 -20.8916
lfingers 7.12502
lthumb 0.577239 9.08734
rfemur -17.5173 3.25848 -0.348244
rtibia 28.166
rfoot 16.6343 -24.1951
rtoes -14.3345
lfemur -22.8033 -1.62687 -24.9311
ltibia 24.4126
lfoot -15.7104 7.0607
ltoes 11.789
188
root 4.36173 17.5225 0.877679 15.5754 3.18283 -4.05127
lowerback -5.16152 -0.00176064 3.63621
upperback -7.87356 0.0713306 3.08735
thorax -5.29366 -0.0610066 1.17726
lowerneck -7.08759 12.242 8.31374
upperneck 32.4965 16.1577 0.824527
head 12.5949 8.37342 1.0657
rclavicle -1.20265e-014 3.97569e-014
rhumerus -0.436174 -11.2587 -4.06245
rradius 130.834
rwrist -52.6775
rhand -3.48722 -44.117
rfingers 7.12502
rthumb 22.2463 -72.8566
lclavicle -1.20265e-014 3.97569e-014
lhumerus 30.4073 19.4849 -6.08873
lradius 66.274
lwrist 62.435
lhand -25.4209 -20.6674
lfingers 7.12502
lthumb 1.1051 9.30944
rfemur -17.7828 3.28675 -0.364655
rtibia 28.553
rfoot 17.9974 -23.0278
rtoes -17.5527
lfemur -22.8282 -1.62047 -24.9782
ltibia 24.5146
lfoot -15.7271 7.15115
ltoes 11.5495
189
root 4.36084 17.5162 0.867244 15.6245 2.99777 -3.99596
lowerback -5.20395 0.0484414 3.47501
upperback -7.85558 0.135653 3.04497
thorax -5.24872 -0.0209535 1.22281
lowerneck -8.18522 12.1564 7.44591
upperneck 33.718 15.8762 1.78704
head 13.1292 8.23281 1.64241
rclavicle 8.00108e-015 7.95139e-016
rhumerus -0.476661 -11.1482 -4.29743
rradius 130.924
rwrist -52.7649
rhand -3.51164 -44.1325
rfingers 7.12502
rthumb 22.2229 -72.8749
lclavicle 8.00108e-015 7.95139e-016
lhumerus 30.5999 19.4069 -5.8357
lradius 66.587
lwrist 62.6681
lhand -24.5533 -19.9936
lfingers 7.12502
lthumb 1.94296 9.97726
rfemur -18.2044 3.42604 -0.452592
rtibia 28.9566
rfoot 17.4372 -23.4455
rtoes -16.9719
lfemur -23.0204 -1.53696 -25.0695
ltibia 24.6798
lfoot -15.701 7.24548
ltoes 11.2677
